<svg width="161" height="162" viewBox="0 0 161 162" fill="none" xmlns="http://www.w3.org/2000/svg">
<g clip-path="url(#clip0_12_144)">
<path d="M152.757 0.882889H107.303C105.833 0.882889 104.629 2.08607 104.629 3.55662C104.629 5.02718 105.833 6.23036 107.303 6.23036H152.757C154.227 6.23036 155.43 7.43354 155.43 8.90409V11.5778H115.324C113.854 11.5778 112.651 12.781 112.651 14.2516C112.651 15.7221 113.854 16.9253 115.324 16.9253H155.43V35.6414H120.672C119.201 35.6414 117.998 36.8446 117.998 38.3152C117.998 39.7857 119.201 40.9889 120.672 40.9889H155.43V43.6626C155.43 45.1332 154.227 46.3364 152.757 46.3364H117.998C116.528 46.3364 115.324 47.5395 115.324 49.0101C115.324 50.4807 116.528 51.6838 117.998 51.6838H150.818L154.394 62.3788H152.757H93.3663C104.696 57.4324 112.651 46.1024 112.651 32.9677C112.651 15.2876 98.2459 0.882889 80.5658 0.882889C62.8857 0.882889 48.481 15.2876 48.481 32.9677C48.481 46.1024 56.4354 57.4324 67.7653 62.3788H8.375H6.73734L10.3135 51.6838H45.8073C47.2778 51.6838 48.481 50.4807 48.481 49.0101C48.481 47.5395 47.2778 46.3364 45.8073 46.3364H8.375C6.90444 46.3364 5.70126 45.1332 5.70126 43.6626V40.9889H40.4598C41.9304 40.9889 43.1335 39.7857 43.1335 38.3152C43.1335 36.8446 41.9304 35.6414 40.4598 35.6414H5.70126V16.9253H45.8073C47.2778 16.9253 48.481 15.7221 48.481 14.2516C48.481 12.781 47.2778 11.5778 45.8073 11.5778H5.70126V8.90409C5.70126 7.43354 6.90444 6.23036 8.375 6.23036H56.5022C57.9728 6.23036 59.1759 5.02718 59.1759 3.55662C59.1759 2.08607 57.9728 0.882889 56.5022 0.882889H8.375C3.96334 0.882889 0.353796 4.49243 0.353796 8.90409V14.2516V38.3152V43.6626C0.353796 46.8377 2.22541 49.5783 4.93257 50.8817L0.487483 64.217C0.220109 65.0191 0.353796 65.9215 0.855121 66.6233C1.35645 67.3252 2.15857 67.7262 3.02753 67.7262H5.70126V145.766C2.59305 146.869 0.353796 149.81 0.353796 153.286V158.633C0.353796 160.104 1.55698 161.307 3.02753 161.307H158.104C159.575 161.307 160.778 160.104 160.778 158.633V153.286C160.778 149.81 158.539 146.869 155.43 145.766V67.7262H158.104C158.973 67.7262 159.775 67.3252 160.277 66.6233C160.778 65.9215 160.912 65.0191 160.644 64.217L156.199 50.8817C158.906 49.5783 160.778 46.8377 160.778 43.6626V38.3152V14.2516V8.90409C160.778 4.49243 157.168 0.882889 152.757 0.882889ZM53.8285 32.9677C53.8285 18.2287 65.8269 6.23036 80.5658 6.23036C95.3048 6.23036 107.303 18.2287 107.303 32.9677C107.303 47.7067 95.3048 59.705 80.5658 59.705C65.8269 59.705 53.8285 47.7067 53.8285 32.9677ZM11.0487 67.7262H150.083V145.265H96.6082V126.548V115.853V75.7474C96.6082 74.2769 95.405 73.0737 93.9345 73.0737H67.1971C65.7266 73.0737 64.5234 74.2769 64.5234 75.7474V115.853V126.548V145.265H11.0487V67.7262ZM69.8709 123.875V118.527H91.2607V123.875H69.8709ZM91.2607 129.222V145.265H69.8709V129.222H91.2607ZM69.8709 113.18V78.4212H91.2607V113.18H69.8709ZM155.43 155.959H5.70126V153.286C5.70126 151.815 6.90444 150.612 8.375 150.612H67.1971H93.9345H152.757C154.227 150.612 155.43 151.815 155.43 153.286V155.959Z" fill="#027239"/>
<path d="M56.5022 73.0738H19.0699C17.5994 73.0738 16.3962 74.277 16.3962 75.7475V123.875V134.57C16.3962 136.04 17.5994 137.243 19.0699 137.243H56.5022C57.9728 137.243 59.1759 136.04 59.1759 134.57V123.875V75.7475C59.1759 74.277 57.9728 73.0738 56.5022 73.0738ZM53.8285 131.896H21.7437V126.548H53.8285V131.896ZM53.8285 121.201H21.7437V78.4213H35.1123V89.4838C30.5001 90.687 27.0911 94.8313 27.0911 99.8111C27.0911 101.282 28.2943 102.485 29.7649 102.485H45.8073C47.2778 102.485 48.481 101.282 48.481 99.8111C48.481 94.8313 45.072 90.687 40.4598 89.4838V78.4213H53.8285V121.201ZM37.7861 94.4637C39.758 94.4637 41.4959 95.5332 42.3983 97.1374H33.1405C34.0763 95.5332 35.8142 94.4637 37.7861 94.4637Z" fill="#027239"/>
<path d="M142.062 73.0738H104.629C103.159 73.0738 101.956 74.277 101.956 75.7475V123.875V134.57C101.956 136.04 103.159 137.243 104.629 137.243H142.062C143.532 137.243 144.735 136.04 144.735 134.57V123.875V75.7475C144.735 74.277 143.532 73.0738 142.062 73.0738ZM139.388 131.896H107.303V126.548H139.388V131.896ZM139.388 121.201H107.303V78.4213H120.672V89.4838C116.06 90.687 112.651 94.8313 112.651 99.8111C112.651 101.282 113.854 102.485 115.324 102.485H131.367C132.837 102.485 134.04 101.282 134.04 99.8111C134.04 94.8313 130.631 90.687 126.019 89.4838V78.4213H139.388V121.201ZM123.346 94.4637C125.317 94.4637 127.055 95.5332 127.958 97.1374H118.7C119.636 95.5332 121.374 94.4637 123.346 94.4637Z" fill="#027239"/>
<path d="M93.734 22.5402C92.5976 16.3238 87.1165 11.5779 80.5658 11.5779C74.0152 11.5779 68.534 16.3238 67.3977 22.5402C62.6852 23.6431 59.1759 27.8877 59.1759 32.9678C59.1759 37.9476 62.585 42.1253 67.1972 43.3285V51.6839C67.1972 53.1545 68.4003 54.3577 69.8709 54.3577H91.2608C92.7313 54.3577 93.9345 53.1545 93.9345 51.6839V43.3285C98.5467 42.1253 101.956 37.9476 101.956 32.9678C101.956 27.9211 98.4464 23.6766 93.734 22.5402ZM91.2608 38.3153C89.7902 38.3153 88.587 39.5184 88.587 40.989V49.0102H72.5446V40.989C72.5446 39.5184 71.3414 38.3153 69.8709 38.3153C66.9298 38.3153 64.5234 35.9089 64.5234 32.9678C64.5234 30.1938 66.629 27.9545 69.3361 27.6872C72.7786 29.4585 72.6783 31.9986 72.6115 32.5333C72.3441 33.9704 73.3133 35.3407 74.7505 35.6081C74.9176 35.6415 75.0847 35.6415 75.2518 35.6415C76.5218 35.6415 77.6247 34.7391 77.8587 33.4691C78.2931 31.1964 77.6247 26.484 72.7117 23.4426C73.4136 19.7328 76.6555 16.9254 80.5658 16.9254C84.9775 16.9254 88.587 20.5349 88.587 24.9466C88.587 26.4171 89.7902 27.6203 91.2608 27.6203C94.2019 27.6203 96.6082 30.0267 96.6082 32.9678C96.6082 35.9089 94.2019 38.3153 91.2608 38.3153Z" fill="#027239"/>
</g>
<defs>
<clipPath id="clip0_12_144">
<rect width="160.427" height="160.427" fill="white" transform="translate(0.352463 0.881638)"/>
</clipPath>
</defs>
</svg>
